<svg width="41" height="42" viewBox="0 0 41 42" fill="none" xmlns="http://www.w3.org/2000/svg">
<mask id="path-1-inside-1" fill="white">
<path d="M39.2324 19.8686C39.5241 24.041 38.4308 28.193 36.1223 31.6807C33.8137 35.1684 30.4188 37.7969 26.4641 39.1585C22.5093 40.5201 18.2158 40.5388 14.2495 39.2115C10.2831 37.8843 6.86549 35.2854 4.52671 31.8178C2.18794 28.3503 1.05871 24.2079 1.31414 20.0332C1.56958 15.8584 3.19541 11.8846 5.93949 8.72806C8.68356 5.57151 12.3925 3.40863 16.4911 2.57486C20.5897 1.74109 24.8489 2.28303 28.6081 4.11662L27.7752 5.82431C24.3919 4.17408 20.5586 3.68633 16.8699 4.43672C13.1811 5.18712 9.84307 7.13371 7.37341 9.97461C4.90374 12.8155 3.44049 16.3919 3.2106 20.1492C2.9807 23.9065 3.99702 27.6346 6.10191 30.7554C8.2068 33.8762 11.2826 36.2152 14.8524 37.4097C18.4221 38.6042 22.2863 38.5875 25.8455 37.362C29.4048 36.1366 32.4602 33.7709 34.5379 30.632C36.6156 27.493 37.5995 23.7562 37.3371 20.0011L39.2324 19.8686Z"/>
</mask>
<path d="M39.2324 19.8686C39.5241 24.041 38.4308 28.193 36.1223 31.6807C33.8137 35.1684 30.4188 37.7969 26.4641 39.1585C22.5093 40.5201 18.2158 40.5388 14.2495 39.2115C10.2831 37.8843 6.86549 35.2854 4.52671 31.8178C2.18794 28.3503 1.05871 24.2079 1.31414 20.0332C1.56958 15.8584 3.19541 11.8846 5.93949 8.72806C8.68356 5.57151 12.3925 3.40863 16.4911 2.57486C20.5897 1.74109 24.8489 2.28303 28.6081 4.11662L27.7752 5.82431C24.3919 4.17408 20.5586 3.68633 16.8699 4.43672C13.1811 5.18712 9.84307 7.13371 7.37341 9.97461C4.90374 12.8155 3.44049 16.3919 3.2106 20.1492C2.9807 23.9065 3.99702 27.6346 6.10191 30.7554C8.2068 33.8762 11.2826 36.2152 14.8524 37.4097C18.4221 38.6042 22.2863 38.5875 25.8455 37.362C29.4048 36.1366 32.4602 33.7709 34.5379 30.632C36.6156 27.493 37.5995 23.7562 37.3371 20.0011L39.2324 19.8686Z" fill="#C4C4C4" stroke="#FF6500" stroke-width="6" mask="url(#path-1-inside-1)"/>
<line x1="12.1318" y1="28.8493" x2="27.6881" y2="13.2929" stroke="#212529" stroke-width="2"/>
<line y1="-1" x2="22" y2="-1" transform="matrix(-0.707107 -0.707107 -0.707107 0.707107 27.3955 29.5564)" stroke="#212529" stroke-width="2"/>
</svg>
