<svg width="16" height="16" viewBox="0 0 16 16" fill="none" xmlns="http://www.w3.org/2000/svg">
<path fill-rule="evenodd" clip-rule="evenodd" d="M10.8159 15.1722C13.0137 14.6522 14.7276 12.9583 15.2289 10.8022C15.6769 8.87582 15.568 6.86555 14.9143 4.99626L14.8172 4.71855C14.0979 2.66172 12.3011 1.14341 10.1156 0.745744L9.51714 0.636851C8.51433 0.454383 7.4857 0.454383 6.48289 0.636851L5.88441 0.745748C3.69892 1.14341 1.9021 2.66171 1.18283 4.71854L1.08572 4.99625C0.432026 6.86555 0.323076 8.87583 0.771054 10.8022C1.27244 12.9583 2.9863 14.6522 5.18406 15.1722C7.03108 15.6093 8.96891 15.6093 10.8159 15.1722ZM6.02427 4.00006C6.13711 3.73736 6.01079 3.43494 5.74213 3.32461C5.47347 3.21427 5.16421 3.33779 5.05137 3.6005L4.87445 4.01242C4.54732 4.77403 4.4651 5.61498 4.63872 6.42341C4.91424 7.70634 5.95873 8.69723 7.27847 8.92767L7.37603 8.94471C7.78875 9.01678 8.21127 9.01678 8.62399 8.94471L8.72155 8.92767C10.0413 8.69723 11.0858 7.70634 11.3613 6.42341C11.5349 5.61498 11.4527 4.77403 11.1256 4.01242L10.9487 3.6005C10.8358 3.33779 10.5266 3.21427 10.2579 3.32461C9.98923 3.43494 9.86292 3.73736 9.97575 4.00006L10.1527 4.41199C10.3968 4.98039 10.4582 5.608 10.3286 6.21134C10.1415 7.08254 9.43224 7.75541 8.53605 7.91189L8.43849 7.92893C8.14847 7.97957 7.85155 7.97957 7.56153 7.92893L7.46397 7.91189C6.56778 7.75541 5.85851 7.08254 5.67141 6.21134C5.54184 5.608 5.60321 4.98039 5.84734 4.41198L6.02427 4.00006Z" fill="white"/>
</svg>
