<svg width="17" height="18" viewBox="0 0 17 18" fill="none" xmlns="http://www.w3.org/2000/svg">
<path d="M1.29406 6.45869C1.83698 4.14417 3.64417 2.33698 5.95869 1.79406C7.63021 1.40198 9.36979 1.40198 11.0413 1.79406C13.3558 2.33698 15.163 4.14418 15.7059 6.4587C16.098 8.13021 16.098 9.86979 15.7059 11.5413C15.163 13.8558 13.3558 15.663 11.0413 16.2059C9.36979 16.598 7.63021 16.598 5.9587 16.2059C3.64418 15.663 1.83698 13.8558 1.29406 11.5413C0.901978 9.86979 0.901978 8.13021 1.29406 6.45869Z" stroke="white" stroke-width="1.5"/>
<path d="M5.58337 9.00002L11.4167 9.00002M11.4167 9.00002L9.33337 6.91669M11.4167 9.00002L9.33337 11.0834" stroke="white" stroke-width="1.5" stroke-linecap="round" stroke-linejoin="round"/>
</svg>
