<svg width="19" height="19" viewBox="0 0 19 19" fill="none" xmlns="http://www.w3.org/2000/svg">
<path d="M1.33327 6.61985C1.94858 3.99673 3.99673 1.94857 6.61985 1.33327C8.51424 0.888909 10.4858 0.88891 12.3801 1.33327C15.0033 1.94857 17.0514 3.99673 17.6667 6.61986C18.1111 8.51424 18.1111 10.4858 17.6667 12.3801C17.0514 15.0033 15.0033 17.0514 12.3801 17.6667C10.4858 18.1111 8.51424 18.1111 6.61986 17.6667C3.99673 17.0514 1.94858 15.0033 1.33327 12.3802C0.888909 10.4858 0.888909 8.51424 1.33327 6.61985Z" stroke="white" stroke-width="1.5"/>
<path d="M6 9.5L13 9.5M13 9.5L10.5 7M13 9.5L10.5 12" stroke="white" stroke-width="1.5" stroke-linecap="round" stroke-linejoin="round"/>
</svg>
