<svg width="16" height="17" viewBox="0 0 16 17" fill="none" xmlns="http://www.w3.org/2000/svg">
<path d="M5.66667 4.83331L5.499 5.23252C5.22832 5.877 5.16028 6.58862 5.30394 7.27272C5.52315 8.31654 6.35414 9.12274 7.40412 9.31024L7.49657 9.32675C7.82956 9.38621 8.17044 9.38621 8.50343 9.32675L8.59588 9.31024C9.64586 9.12274 10.4769 8.31654 10.6961 7.27272C10.8397 6.58863 10.7717 5.877 10.501 5.23252L10.3333 4.83331" stroke="white" stroke-width="1.5" stroke-linecap="round"/>
<path d="M14.8508 11.6191C14.3757 13.7086 12.7515 15.3503 10.6688 15.8543C8.9184 16.2778 7.08199 16.2778 5.33162 15.8543C3.24889 15.3503 1.62471 13.7086 1.14957 11.6191C0.725036 9.7522 0.828284 7.80397 1.44776 5.99237L1.5398 5.72322C2.22142 3.72988 3.92421 2.25844 5.99532 1.87305L6.56248 1.76751C7.51281 1.59068 8.48761 1.59068 9.43794 1.76752L10.0051 1.87305C12.0762 2.25844 13.779 3.72988 14.4606 5.72324L14.5526 5.99237C15.1721 7.80397 15.2754 9.7522 14.8508 11.6191Z" stroke="white" stroke-width="1.5"/>
</svg>
